<svg width="48" height="48" viewBox="0 0 48 48" fill="none" xmlns="http://www.w3.org/2000/svg">
<path opacity="0.4" d="M17.12 6.68005V35.3401C16.44 35.3601 15.76 35.5201 15.26 35.8201L10.56 38.5001C7.27996 40.3801 4.57996 38.8201 4.57996 35.0201V15.5601C4.57996 14.3001 5.47996 12.7401 6.59996 12.1001L15.26 7.14005C15.76 6.86005 16.44 6.70005 17.12 6.68005Z" fill="#458787"/>
<path d="M31.46 12.66V41.32C30.76 41.34 30.08 41.22 29.54 40.96L19.04 35.7C18.5 35.44 17.82 35.32 17.12 35.34V6.68C17.82 6.66 18.5 6.78 19.04 7.04L29.54 12.3C30.08 12.56 30.76 12.68 31.46 12.66Z" fill="#458787"/>
<path opacity="0.4" d="M44 12.98V32.44C44 33.7 43.1 35.26 41.98 35.9L33.32 40.86C32.82 41.14 32.14 41.3 31.46 41.32V12.66C32.14 12.64 32.82 12.48 33.32 12.18L38.02 9.50001C41.3 7.62001 44 9.18001 44 12.98Z" fill="#458787"/>
</svg>
