<svg width="40" height="40" viewBox="0 0 40 40" fill="none" xmlns="http://www.w3.org/2000/svg">
<path opacity="0.4" d="M29.9667 17.9833V24.65C29.9667 25.0833 29.95 25.5 29.9 25.9C29.5167 30.4 26.8667 32.6333 21.9834 32.6333H21.3167C20.9001 32.6333 20.5 32.8333 20.25 33.1667L18.2501 35.8333C17.3667 37.0167 15.9334 37.0167 15.05 35.8333L13.05 33.1667C12.8334 32.8833 12.35 32.6333 11.9834 32.6333H11.3167C6.00006 32.6333 3.33337 31.3167 3.33337 24.65V17.9833C3.33337 13.1 5.58339 10.45 10.0667 10.0667C10.4667 10.0167 10.8834 10 11.3167 10H21.9834C27.3 10 29.9667 12.6667 29.9667 17.9833Z" fill="#458787"/>
<path d="M16.6499 23.3333C15.7166 23.3333 14.9833 22.5833 14.9833 21.6667C14.9833 20.75 15.7333 20 16.6499 20C17.5666 20 18.3166 20.75 18.3166 21.6667C18.3166 22.5833 17.5833 23.3333 16.6499 23.3333Z" fill="#458787"/>
<path d="M22.4833 23.3333C21.55 23.3333 20.8167 22.5833 20.8167 21.6667C20.8167 20.75 21.5667 20 22.4833 20C23.4 20 24.15 20.75 24.15 21.6667C24.15 22.5833 23.4 23.3333 22.4833 23.3333Z" fill="#458787"/>
<path d="M10.8333 23.3333C9.89996 23.3333 9.16663 22.5833 9.16663 21.6667C9.16663 20.75 9.91663 20 10.8333 20C11.75 20 12.5 20.75 12.5 21.6667C12.5 22.5833 11.75 23.3333 10.8333 23.3333Z" fill="#458787"/>
<path d="M36.6333 11.3167V17.9834C36.6333 22.8834 34.3833 25.5167 29.9 25.9001C29.95 25.5001 29.9667 25.0834 29.9667 24.6501V17.9834C29.9667 12.6667 27.3 10 21.9833 10H11.3167C10.8833 10 10.4667 10.0167 10.0667 10.0667C10.45 5.58339 13.1 3.33337 17.9833 3.33337H28.65C33.9666 3.33337 36.6333 6.00005 36.6333 11.3167Z" fill="#458787"/>
</svg>
