<svg width="48" height="48" viewBox="0 0 48 48" fill="none" xmlns="http://www.w3.org/2000/svg">
<path opacity="0.4" d="M44 19.5C43.18 19.5 42.5 18.82 42.5 18V14C42.5 8.84 39.16 5.5 34 5.5H14C8.84 5.5 5.5 8.84 5.5 14V18C5.5 18.82 4.82 19.5 4 19.5C3.18 19.5 2.5 18.82 2.5 18V14C2.5 7.12 7.12 2.5 14 2.5H34C40.88 2.5 45.5 7.12 45.5 14V18C45.5 18.82 44.82 19.5 44 19.5Z" fill="#458787"/>
<path opacity="0.4" d="M34 45.5H14C7.12 45.5 2.5 40.88 2.5 34V30C2.5 29.18 3.18 28.5 4 28.5C4.82 28.5 5.5 29.18 5.5 30V34C5.5 39.16 8.84 42.5 14 42.5H34C39.16 42.5 42.5 39.16 42.5 34V30C42.5 29.18 43.18 28.5 44 28.5C44.82 28.5 45.5 29.18 45.5 30V34C45.5 40.88 40.88 45.5 34 45.5Z" fill="#458787"/>
<path d="M32.8 16.4201L25.28 12.36C24.48 11.94 23.54 11.94 22.74 12.36L15.22 16.4201C14.68 16.7201 14.34 17.3 14.34 17.96C14.34 18.62 14.68 19.2001 15.22 19.5001L22.74 23.5601C23.14 23.7801 23.58 23.8801 24.02 23.8801C24.46 23.8801 24.9 23.7801 25.3 23.5601L32.82 19.5001C33.36 19.2001 33.7 18.62 33.7 17.96C33.68 17.3 33.34 16.7201 32.8 16.4201Z" fill="#458787"/>
<path d="M21.48 24.9399L14.48 21.4399C13.94 21.1799 13.32 21.2 12.8 21.52C12.28 21.84 11.98 22.38 11.98 22.98V29.6C11.98 30.74 12.62 31.78 13.64 32.28L20.64 35.78C20.88 35.9 21.14 35.96 21.42 35.96C21.74 35.96 22.04 35.88 22.32 35.7C22.84 35.38 23.14 34.84 23.14 34.24V27.62C23.14 26.48 22.52 25.4599 21.48 24.9399Z" fill="#458787"/>
<path d="M35.18 21.52C34.66 21.2 34.04 21.1799 33.5 21.4399L26.5 24.9399C25.48 25.4599 24.84 26.48 24.84 27.62V34.24C24.84 34.84 25.14 35.38 25.66 35.7C25.94 35.88 26.24 35.96 26.56 35.96C26.82 35.96 27.08 35.9 27.34 35.78L34.34 32.28C35.36 31.76 36 30.74 36 29.6V22.98C36 22.38 35.7 21.84 35.18 21.52Z" fill="#458787"/>
</svg>
