<svg width="48" height="48" viewBox="0 0 48 48" fill="none" xmlns="http://www.w3.org/2000/svg">
<path opacity="0.4" d="M36 37.72H34.48C32.88 37.72 31.36 38.34 30.24 39.46L26.82 42.84C25.26 44.38 22.72 44.38 21.16 42.84L17.74 39.46C16.62 38.34 15.08 37.72 13.5 37.72H12C8.68 37.72 6 35.06 6 31.78V9.95996C6 6.67996 8.68 4.02002 12 4.02002H36C39.32 4.02002 42 6.67996 42 9.95996V31.78C42 35.04 39.32 37.72 36 37.72Z" fill="#458787"/>
<path d="M20.76 29.02H15.4C14.52 29.02 13.7 28.6 13.18 27.88C12.68 27.2 12.56 26.3601 12.8 25.5601C13.5 23.4201 15.22 22.26 16.74 21.22C18.34 20.14 19.24 19.46 19.24 18.3C19.24 17.26 18.4 16.42 17.36 16.42C16.32 16.42 15.48 17.26 15.48 18.3C15.48 19.12 14.8 19.8 13.98 19.8C13.16 19.8 12.48 19.12 12.48 18.3C12.48 15.62 14.66 13.42 17.36 13.42C20.06 13.42 22.24 15.6 22.24 18.3C22.24 21.12 20.12 22.56 18.42 23.72C17.36 24.44 16.36 25.12 15.86 26.02H20.74C21.56 26.02 22.24 26.7 22.24 27.52C22.24 28.34 21.58 29.02 20.76 29.02Z" fill="#458787"/>
<path d="M32.08 29.02C31.26 29.02 30.58 28.34 30.58 27.52V26.14H26.66C26.66 26.14 26.66 26.14 26.64 26.14C25.66 26.14 24.76 25.62 24.26 24.78C23.76 23.92 23.76 22.86 24.26 22.02C25.62 19.68 27.2 17.0199 28.64 14.6999C29.28 13.6799 30.5 13.22 31.64 13.54C32.78 13.88 33.58 14.92 33.56 16.12V23.16H34C34.82 23.16 35.5 23.84 35.5 24.66C35.5 25.48 34.82 26.16 34 26.16H33.58V27.54C33.58 28.36 32.92 29.02 32.08 29.02ZM30.58 17.28C29.4 19.2 28.18 21.26 27.08 23.14H30.58V17.28Z" fill="#458787"/>
</svg>
